<svg width="119" height="119" viewBox="0 0 119 119" fill="none" xmlns="http://www.w3.org/2000/svg">
<circle cx="59.5" cy="59.5" r="57" stroke="#35EE9A" stroke-width="5"/>
<path fill-rule="evenodd" clip-rule="evenodd" d="M59.4999 37C60.6321 37 61.5499 37.985 61.5499 39.2V41.4C61.5499 42.615 60.6321 43.6 59.4999 43.6C58.3677 43.6 57.4499 42.615 57.4499 41.4V39.2C57.4499 37.985 58.3677 37 59.4999 37ZM45.0042 43.4436C45.8048 42.5845 47.1028 42.5845 47.9033 43.4436L49.3529 44.9993C50.1535 45.8584 50.1535 47.2514 49.3529 48.1106C48.5523 48.9697 47.2543 48.9697 46.4538 48.1106L45.0042 46.5549C44.2036 45.6958 44.2036 44.3028 45.0042 43.4436ZM73.9956 43.4437C74.7962 44.3028 74.7962 45.6958 73.9956 46.5549L72.546 48.1106C71.7454 48.9697 70.4474 48.9697 69.6469 48.1106C68.8463 47.2514 68.8463 45.8584 69.6469 44.9993L71.0964 43.4437C71.897 42.5845 73.195 42.5845 73.9956 43.4437ZM53.7016 52.7775C50.4993 56.2141 50.4993 61.786 53.7016 65.2226L54.8232 66.4262C55.2189 66.8509 55.5738 67.3111 55.8852 67.8H63.1146C63.426 67.3111 63.7809 66.8509 64.1766 66.4262L65.2982 65.2226C68.5005 61.786 68.5005 56.2141 65.2982 52.7775C62.0959 49.3409 56.9039 49.3409 53.7016 52.7775ZM66.1519 70.9211C66.3851 70.4135 66.6958 69.9453 67.0758 69.5375L68.1973 68.3339C73.0008 63.1789 73.0008 54.8212 68.1973 49.6662C63.3939 44.5113 55.6059 44.5113 50.8025 49.6662C45.999 54.8212 45.999 63.1789 50.8025 68.3339L51.924 69.5375C52.304 69.9453 52.6147 70.4135 52.8479 70.9212C52.8582 70.945 52.8688 70.9686 52.8798 70.9919C53.1864 71.6854 53.3499 72.4495 53.3499 73.2317V74.4C53.3499 78.0451 56.1033 81 59.4999 81C62.8964 81 65.6499 78.0451 65.6499 74.4V73.2317C65.6499 72.4495 65.8133 71.6854 66.1199 70.9919C66.131 70.9686 66.1416 70.945 66.1519 70.9211ZM61.6015 72.2H57.3982C57.4325 72.5411 57.4499 72.8854 57.4499 73.2317V74.4C57.4499 75.615 58.3677 76.6 59.4999 76.6C60.6321 76.6 61.5499 75.615 61.5499 74.4V73.2317C61.5499 72.8854 61.5673 72.5411 61.6015 72.2ZM39 58.9999C39 57.7849 39.9178 56.7999 41.05 56.7999H43.1C44.2322 56.7999 45.15 57.7849 45.15 58.9999C45.15 60.2149 44.2322 61.1999 43.1 61.1999H41.05C39.9178 61.1999 39 60.2149 39 58.9999ZM73.85 58.9999C73.85 57.7849 74.7678 56.7999 75.9 56.7999H77.95C79.0822 56.7999 80 57.7849 80 58.9999C80 60.2149 79.0822 61.1999 77.95 61.1999H75.9C74.7678 61.1999 73.85 60.2149 73.85 58.9999Z" fill="#35EE9A"/>
</svg>
