<svg width="119" height="120" viewBox="0 0 119 120" fill="none" xmlns="http://www.w3.org/2000/svg">
<path d="M116.5 60C116.5 91.7761 90.9605 117.5 59.5 117.5C28.0395 117.5 2.5 91.7761 2.5 60C2.5 28.2239 28.0395 2.5 59.5 2.5C90.9605 2.5 116.5 28.2239 116.5 60Z" stroke="#35EE9A" stroke-width="5"/>
<path fill-rule="evenodd" clip-rule="evenodd" d="M59.5 48.5417C57.613 48.5417 56.0833 50.0714 56.0833 51.9583C56.0833 53.8453 57.613 55.375 59.5 55.375C61.387 55.375 62.9166 53.8453 62.9166 51.9583C62.9166 50.0714 61.387 48.5417 59.5 48.5417ZM52.6666 51.9583C52.6666 48.1844 55.726 45.125 59.5 45.125C63.2739 45.125 66.3333 48.1844 66.3333 51.9583C66.3333 55.7323 63.2739 58.7917 59.5 58.7917C55.726 58.7917 52.6666 55.7323 52.6666 51.9583ZM47.5416 55.375C46.5982 55.375 45.8333 56.1398 45.8333 57.0833C45.8333 58.0268 46.5982 58.7917 47.5416 58.7917C48.4851 58.7917 49.25 58.0268 49.25 57.0833C49.25 56.1398 48.4851 55.375 47.5416 55.375ZM42.4166 57.0833C42.4166 54.2529 44.7112 51.9583 47.5416 51.9583C50.3721 51.9583 52.6666 54.2529 52.6666 57.0833C52.6666 59.9138 50.3721 62.2083 47.5416 62.2083C44.7112 62.2083 42.4166 59.9138 42.4166 57.0833ZM71.4583 55.375C70.5148 55.375 69.75 56.1398 69.75 57.0833C69.75 58.0268 70.5148 58.7917 71.4583 58.7917C72.4018 58.7917 73.1666 58.0268 73.1666 57.0833C73.1666 56.1398 72.4018 55.375 71.4583 55.375ZM66.3333 57.0833C66.3333 54.2529 68.6279 51.9583 71.4583 51.9583C74.2888 51.9583 76.5833 54.2529 76.5833 57.0833C76.5833 59.9138 74.2888 62.2083 71.4583 62.2083C68.6279 62.2083 66.3333 59.9138 66.3333 57.0833ZM59.5 63.9167C56.6256 63.9167 54.1617 65.692 53.1529 68.2123C52.8397 68.9946 52.6666 69.85 52.6666 70.75V72.4583H66.3333V70.75C66.3333 69.85 66.1602 68.9946 65.8471 68.2123C64.8382 65.692 62.3744 63.9167 59.5 63.9167ZM69.75 72.4583H74.875V70.75C74.875 68.863 73.3453 67.3333 71.4583 67.3333C70.6792 67.3333 69.9613 67.5931 69.3856 68.0333C69.6233 68.8999 69.75 69.8112 69.75 70.75V72.4583ZM67.9197 64.9035C66.0693 62.2435 62.9896 60.5 59.5 60.5C56.0104 60.5 52.9307 62.2435 51.0803 64.9035C50.0485 64.2778 48.8371 63.9167 47.5416 63.9167C43.7677 63.9167 40.7083 66.9761 40.7083 70.75V74.1667C40.7083 75.1102 41.4732 75.875 42.4166 75.875H76.5833C77.5268 75.875 78.2916 75.1102 78.2916 74.1667V70.75C78.2916 66.9761 75.2323 63.9167 71.4583 63.9167C70.1629 63.9167 68.9515 64.2778 67.9197 64.9035ZM49.6143 68.0333C49.0387 67.5931 48.3208 67.3333 47.5416 67.3333C45.6547 67.3333 44.125 68.863 44.125 70.75V72.4583H49.25V70.75C49.25 69.8112 49.3766 68.8999 49.6143 68.0333Z" fill="#35EE9A"/>
</svg>
