<svg width="119" height="119" viewBox="0 0 119 119" fill="none" xmlns="http://www.w3.org/2000/svg">
<circle cx="59.5" cy="59.5" r="57" stroke="#35EE9A" stroke-width="5"/>
<path fill-rule="evenodd" clip-rule="evenodd" d="M45.15 40C46.2822 40 47.2 40.873 47.2 41.95V43.9H49.25C50.3822 43.9 51.3 44.773 51.3 45.85C51.3 46.927 50.3822 47.8 49.25 47.8H47.2V49.75C47.2 50.827 46.2822 51.7 45.15 51.7C44.0178 51.7 43.1 50.827 43.1 49.75V47.8H41.05C39.9178 47.8 39 46.927 39 45.85C39 44.773 39.9178 43.9 41.05 43.9H43.1V41.95C43.1 40.873 44.0178 40 45.15 40ZM61.55 40C62.4324 40 63.2158 40.5371 63.4948 41.3334L67.8712 53.8222L78.6698 57.6742C79.4699 57.9596 80 58.6872 80 59.5C80 60.3128 79.4699 61.0404 78.6698 61.3258L67.8712 65.1778L63.4948 77.6666C63.2158 78.4629 62.4324 79 61.55 79C60.6676 79 59.8842 78.4629 59.6052 77.6666L55.2288 65.1778L44.4302 61.3258C43.6301 61.0404 43.1 60.3128 43.1 59.5C43.1 58.6872 43.6301 57.9596 44.4302 57.6742L55.2288 53.8222L59.6052 41.3334C59.8842 40.5371 60.6676 40 61.55 40ZM61.55 48.1164L58.8091 55.9381C58.6135 56.4963 58.1633 56.9407 57.5841 57.1473L50.9884 59.5L57.5841 61.8527C58.1633 62.0593 58.6135 62.5037 58.8091 63.0619L61.55 70.8836L64.2909 63.0619C64.4865 62.5037 64.9367 62.0593 65.5159 61.8527L72.1116 59.5L65.5159 57.1473C64.9367 56.9407 64.4865 56.4963 64.2909 55.9381L61.55 48.1164ZM47.2 67.3C48.3322 67.3 49.25 68.173 49.25 69.25V71.2H51.3C52.4322 71.2 53.35 72.073 53.35 73.15C53.35 74.227 52.4322 75.1 51.3 75.1H49.25V77.05C49.25 78.127 48.3322 79 47.2 79C46.0678 79 45.15 78.127 45.15 77.05V75.1H43.1C41.9678 75.1 41.05 74.227 41.05 73.15C41.05 72.073 41.9678 71.2 43.1 71.2H45.15V69.25C45.15 68.173 46.0678 67.3 47.2 67.3Z" fill="#35EE9A"/>
</svg>
