<svg width="119" height="119" viewBox="0 0 119 119" fill="none" xmlns="http://www.w3.org/2000/svg">
<circle cx="59.5" cy="59.5" r="57" stroke="#35EE9A" stroke-width="5"/>
<path fill-rule="evenodd" clip-rule="evenodd" d="M75.8774 43.1135C74.6472 41.8856 72.6527 41.8856 71.4226 43.1135L69.7575 44.7757L74.2123 49.2226L75.8774 47.5604C77.1075 46.3325 77.1075 44.3415 75.8774 43.1135ZM71.2424 52.1871L66.7877 47.7403L43.2 71.2861V75.8074H47.5802L71.2424 52.1871ZM68.4527 40.149C71.3231 37.2837 75.9769 37.2837 78.8472 40.149C81.7176 43.0142 81.7176 47.6597 78.8472 50.525L49.935 79.386C49.5411 79.7791 49.007 80 48.45 80H41.1C39.9402 80 39 79.0615 39 77.9037V70.4178C39 69.8618 39.2212 69.3286 39.6151 68.9355L68.4527 40.149Z" fill="#35EE9A"/>
</svg>
