<svg width="140" height="140" viewBox="0 0 140 140" fill="none" xmlns="http://www.w3.org/2000/svg">
<circle cx="70" cy="70" r="67.5" stroke="#35EE9A" stroke-width="5"/>
<path fill-rule="evenodd" clip-rule="evenodd" d="M49 58.0264C49 54.6981 51.8206 52 55.3 52H84.7C88.1794 52 91 54.6981 91 58.0264V78.1143C91 81.4426 88.1794 84.1407 84.7 84.1407H77.4146L78.1962 87.1313L79.8849 88.7467C80.4855 89.3212 80.6652 90.1852 80.3401 90.9358C80.0151 91.6865 79.2494 92.1759 78.4 92.1759H61.6C60.7506 92.1759 59.9849 91.6865 59.6599 90.9358C59.3348 90.1852 59.5145 89.3212 60.1151 88.7467L61.8038 87.1313L62.5854 84.1407H55.3C51.8206 84.1407 49 81.4426 49 78.1143V58.0264ZM53.2 76.1055V78.1143C53.2 79.2238 54.1402 80.1231 55.3 80.1231H65.2279C65.2582 80.1225 65.2885 80.1225 65.3189 80.1231H74.6811C74.7115 80.1225 74.7418 80.1225 74.7721 80.1231H84.7C85.8598 80.1231 86.8 79.2238 86.8 78.1143V76.1055H53.2ZM86.8 72.0879H53.2V58.0264C53.2 56.917 54.1402 56.0176 55.3 56.0176H84.7C85.8598 56.0176 86.8 56.917 86.8 58.0264V72.0879ZM73.0854 84.1407H66.9146L65.8646 88.1583H74.1354L73.0854 84.1407Z" fill="#35EE9A"/>
</svg>
