<svg width="119" height="119" viewBox="0 0 119 119" fill="none" xmlns="http://www.w3.org/2000/svg">
<circle cx="59.5" cy="59.5" r="57" stroke="#35EE9A" stroke-width="5"/>
<path fill-rule="evenodd" clip-rule="evenodd" d="M59.5 43C58.9315 43 58.4706 43.4477 58.4706 44V57C58.4706 58.1046 57.5488 59 56.4118 59C55.2747 59 54.3529 58.1046 54.3529 57V46C54.3529 45.4477 53.8921 45 53.3235 45C52.755 45 52.2941 45.4477 52.2941 46V63C52.2941 64.1046 51.3724 65 50.2353 65C49.0982 65 48.1765 64.1046 48.1765 63V58C48.1765 57.4477 47.7156 57 47.1471 57C46.5785 57 46.1176 57.4477 46.1176 58V62C46.1176 69.1797 52.1091 75 59.5 75C66.8909 75 72.8824 69.1797 72.8824 62V52C72.8824 51.4477 72.4215 51 71.8529 51C71.2844 51 70.8235 51.4477 70.8235 52V57C70.8235 58.1046 69.9018 59 68.7647 59C67.6276 59 66.7059 58.1046 66.7059 57V46C66.7059 45.4477 66.245 45 65.6765 45C65.1079 45 64.6471 45.4477 64.6471 46V57C64.6471 58.1046 63.7253 59 62.5882 59C61.4512 59 60.5294 58.1046 60.5294 57V44C60.5294 43.4477 60.0685 43 59.5 43ZM63.8489 41.3244C64.4168 41.1148 65.0328 41 65.6765 41C68.5191 41 70.8235 43.2386 70.8235 46V47.1C71.1561 47.0344 71.5004 47 71.8529 47C74.6956 47 77 49.2386 77 52V62C77 71.3888 69.165 79 59.5 79C49.835 79 42 71.3888 42 62V58C42 55.2386 44.3044 53 47.1471 53C47.4996 53 47.8439 53.0344 48.1765 53.1V46C48.1765 43.2386 50.4809 41 53.3235 41C53.9672 41 54.5832 41.1148 55.1511 41.3244C56.0639 39.9273 57.6705 39 59.5 39C61.3295 39 62.9361 39.9273 63.8489 41.3244Z" fill="#35EE9A"/>
</svg>
