<svg width="186" height="43" viewBox="0 0 186 43" fill="none" xmlns="http://www.w3.org/2000/svg">
<path d="M14.7019 31.9413C14.7019 29.7375 14.6932 27.5331 14.7093 25.3294C14.7126 24.8917 14.5599 24.6123 14.1965 24.3715C9.93092 21.5459 5.67262 18.7089 1.41432 15.8732C0.481589 15.2519 0.228238 14.1637 0.798944 13.2657C0.92562 13.0668 1.0903 12.9059 1.27498 12.7602C6.44334 8.68796 11.6097 4.61441 16.7774 0.54152C17.6528 -0.148935 18.4148 -0.180864 19.3396 0.455712C23.1325 3.06787 26.9221 5.68535 30.7124 8.30149C31.3011 8.70792 31.3111 9.27798 30.7437 9.715C30.7264 9.7283 30.7084 9.74227 30.691 9.75557C29.8283 10.4101 29.7563 10.4074 28.8582 9.78684C25.4893 7.45871 22.1191 5.13258 18.7482 2.80712C18.2055 2.43262 18.0468 2.43927 17.5388 2.83971C13.0318 6.38977 8.52682 9.94049 4.02117 13.4912C3.99517 13.5118 3.9685 13.5318 3.9425 13.5531C3.37846 14.0094 3.39046 14.4537 3.9865 14.8562C4.74055 15.3657 5.49994 15.8672 6.25799 16.3714C9.44622 18.492 12.6264 20.6246 15.8293 22.7226C16.6441 23.256 17.0081 23.9186 17.0034 24.899C16.9774 30.2151 16.9921 35.5312 16.9901 40.8474C16.9901 41.8697 16.3727 42.5988 15.362 42.7617C14.8519 42.8442 14.3979 42.6832 13.9859 42.3859C11.235 40.395 8.48415 38.4042 5.73329 36.4133C4.16918 35.2811 2.6164 34.133 1.03563 33.0235C0.318244 32.5193 -0.00977896 31.9034 0.000221743 31.0107C0.0348908 28.032 0.013556 25.0527 0.013556 22.0734C0.013556 21.3337 0.252906 21.0915 0.98229 21.0902C2.1257 21.0876 2.26038 21.2226 2.26038 22.3694C2.26038 25.072 2.26638 27.7739 2.25438 30.4766C2.25238 30.9056 2.39239 31.1996 2.74641 31.4544C6.33 34.0359 9.90558 36.6288 13.4798 39.223C13.7505 39.4192 14.0265 39.5296 14.3452 39.3786C14.6646 39.2276 14.7046 38.937 14.7039 38.6197C14.6993 36.3933 14.7013 34.1676 14.7013 31.9413H14.7019Z" fill="url(#paint0_linear_532_64)"/>
<path d="M18.6816 33.0919C18.6816 30.0906 18.6849 27.09 18.6769 24.0887C18.6756 23.7222 18.8042 23.4674 19.0916 23.2399C23.5859 19.6752 28.1616 16.2156 32.7552 12.78C33.0752 12.5405 33.3919 12.2977 33.7106 12.0563C33.9786 11.8534 34.2686 11.7776 34.5813 11.9385C34.8907 12.0975 35 12.3623 35 12.7055C34.9954 18.6522 34.9954 24.5989 35 30.5456C35 30.9061 34.8647 31.1542 34.5607 31.3398C32.7899 32.4221 31.0238 33.5116 29.2523 34.5925C28.7936 34.8726 28.3782 34.7602 28.0822 34.3032C27.9982 34.1728 27.9169 34.0404 27.8355 33.9087C27.4908 33.3513 27.5715 32.9668 28.1262 32.6236C29.211 31.9518 30.301 31.2873 31.3884 30.6201C31.7005 30.4285 32.0132 30.2369 32.3258 30.0467C32.6152 29.8704 32.7525 29.6203 32.7519 29.2751C32.7479 25.2222 32.7485 21.1692 32.7499 17.1156C32.7499 16.8057 32.6659 16.5389 32.3672 16.3992C32.0798 16.2649 31.8145 16.3214 31.5591 16.515C30.1184 17.6085 28.6749 18.6974 27.2268 19.7817C26.9528 19.9865 26.8448 20.236 26.8468 20.5779C26.8568 22.6153 26.8521 24.6528 26.8515 26.6909C26.8515 27.4532 26.5948 27.6747 25.8347 27.7146C24.6873 27.7751 24.532 27.3441 24.5533 26.4488C24.578 25.4197 24.5533 24.3894 24.562 23.359C24.5646 23.0464 24.4973 22.779 24.1946 22.6399C23.8919 22.5009 23.6139 22.5801 23.3579 22.783C22.6972 23.3065 22.0411 23.8366 21.3657 24.3408C21.0491 24.5776 20.9237 24.8603 20.925 25.2474C20.9324 28.1822 20.929 31.1163 20.929 34.0511C20.929 36.3652 20.9244 38.6801 20.9344 40.9942C20.9357 41.3328 20.8604 41.6215 20.6497 41.8869C20.4497 42.1383 20.2757 42.4097 20.0803 42.6651C19.853 42.9618 19.5249 43.0656 19.1956 42.9592C18.8596 42.8507 18.6836 42.5973 18.6836 42.1942C18.6816 39.1597 18.6829 36.1258 18.6822 33.0912L18.6816 33.0919Z" fill="url(#paint1_linear_532_64)"/>
<path d="M49 27.3039V13.4585H58.1413V16.0757H52.0734V18.9727H57.4715V21.5899H52.0734V27.3039H49Z" fill="#F6F5F5"/>
<path d="M65.9369 19.4322C65.6742 19.3656 65.3655 19.299 65.0109 19.2324C64.6563 19.1525 64.2754 19.1125 63.8682 19.1125C63.6844 19.1125 63.4611 19.1325 63.1984 19.1724C62.9488 19.1991 62.7584 19.2324 62.6271 19.2723V27.3039H59.6916V17.3544C60.2169 17.1679 60.8343 16.9947 61.5435 16.8349C62.2659 16.6618 63.0671 16.5752 63.947 16.5752C64.1046 16.5752 64.2951 16.5885 64.5184 16.6151C64.7417 16.6285 64.9649 16.6551 65.1882 16.6951C65.4115 16.7217 65.6348 16.7617 65.8581 16.8149C66.0813 16.8549 66.2718 16.9082 66.4294 16.9748L65.9369 19.4322Z" fill="#F6F5F5"/>
<path d="M71.7312 25.2261C72.0201 25.2261 72.2959 25.2194 72.5586 25.2061C72.8213 25.1928 73.0314 25.1728 73.189 25.1462V22.8885C73.0708 22.8619 72.8935 22.8353 72.6571 22.8086C72.4207 22.782 72.204 22.7687 72.007 22.7687C71.7312 22.7687 71.4685 22.7886 71.2189 22.8286C70.9825 22.8552 70.7724 22.9152 70.5885 23.0084C70.4046 23.1016 70.2601 23.2282 70.1551 23.388C70.05 23.5478 69.9975 23.7476 69.9975 23.9874C69.9975 24.4536 70.1485 24.7799 70.4506 24.9664C70.7658 25.1395 71.1927 25.2261 71.7312 25.2261ZM71.4947 16.5152C72.3616 16.5152 73.084 16.6151 73.6619 16.8149C74.2398 17.0147 74.6995 17.3011 75.041 17.674C75.3956 18.047 75.6451 18.4998 75.7896 19.0326C75.9341 19.5654 76.0063 20.1581 76.0063 20.8107V27.0042C75.586 27.0974 75.0016 27.204 74.2529 27.3239C73.5043 27.4571 72.598 27.5237 71.5341 27.5237C70.8643 27.5237 70.2536 27.4637 69.7019 27.3438C69.1634 27.224 68.6972 27.0308 68.3032 26.7645C67.9091 26.4848 67.607 26.1251 67.3969 25.6856C67.1868 25.2461 67.0817 24.7066 67.0817 24.0673C67.0817 23.4546 67.1999 22.9352 67.4363 22.5089C67.6859 22.0827 68.0142 21.7431 68.4214 21.49C68.8285 21.2369 69.2948 21.0571 69.8201 20.9506C70.3455 20.8307 70.8906 20.7708 71.4553 20.7708C71.8362 20.7708 72.1712 20.7907 72.4601 20.8307C72.7622 20.8573 73.0052 20.8973 73.189 20.9506V20.6709C73.189 20.1647 73.038 19.7585 72.7359 19.4522C72.4338 19.1458 71.9085 18.9926 71.1598 18.9926C70.6607 18.9926 70.1682 19.0326 69.6822 19.1125C69.1963 19.1791 68.776 19.279 68.4214 19.4122L68.047 17.0147C68.2178 16.9614 68.4279 16.9082 68.6775 16.8549C68.9402 16.7883 69.2225 16.735 69.5246 16.6951C69.8267 16.6418 70.1419 16.6018 70.4703 16.5752C70.8118 16.5352 71.1533 16.5152 71.4947 16.5152Z" fill="#F6F5F5"/>
<path d="M78.6213 17.1546C79.1204 17.0081 79.764 16.8749 80.5521 16.755C81.3401 16.6218 82.1675 16.5552 83.0344 16.5552C83.9144 16.5552 84.6433 16.6751 85.2212 16.9148C85.8123 17.1413 86.2785 17.4676 86.62 17.8938C86.9615 18.32 87.2045 18.8261 87.349 19.4122C87.4934 19.9982 87.5657 20.6509 87.5657 21.3701V27.3039H84.6302V21.7298C84.6302 20.7708 84.5054 20.0915 84.2559 19.6919C84.0063 19.2923 83.5401 19.0925 82.8571 19.0925C82.6469 19.0925 82.4237 19.1059 82.1872 19.1325C81.9508 19.1458 81.7407 19.1658 81.5568 19.1924V27.3039H78.6213V17.1546Z" fill="#F6F5F5"/>
<path d="M92.6854 22.1293C92.6854 24.034 93.3815 24.9863 94.7737 24.9863C95.0758 24.9863 95.3713 24.9464 95.6602 24.8665C95.9623 24.7865 96.2053 24.6866 96.3892 24.5668V19.1924C96.2447 19.1658 96.0608 19.1458 95.8376 19.1325C95.6143 19.1059 95.3713 19.0925 95.1086 19.0925C94.3074 19.0925 93.7033 19.3722 93.2961 19.9317C92.8889 20.4777 92.6854 21.2103 92.6854 22.1293ZM89.6908 22.0494C89.6908 21.2369 89.809 20.4977 90.0454 19.8318C90.2949 19.1525 90.6496 18.5731 91.1093 18.0936C91.569 17.6008 92.1337 17.2212 92.8036 16.9548C93.4734 16.6884 94.2352 16.5552 95.0889 16.5552C95.4435 16.5552 95.8113 16.5752 96.1922 16.6151C96.5862 16.6418 96.9671 16.6817 97.3348 16.735C97.7157 16.7883 98.0769 16.8549 98.4184 16.9348C98.7599 17.0014 99.062 17.0747 99.3247 17.1546V31H96.3892V27.0442C96.0608 27.1907 95.7193 27.3039 95.3647 27.3838C95.0101 27.4637 94.6292 27.5037 94.222 27.5037C92.751 27.5037 91.6281 27.0175 90.8531 26.0452C90.0782 25.0596 89.6908 23.7277 89.6908 22.0494Z" fill="#F6F5F5"/>
<path d="M110.88 26.9443C110.381 27.0908 109.737 27.224 108.949 27.3438C108.161 27.477 107.333 27.5436 106.467 27.5436C105.587 27.5436 104.851 27.4238 104.26 27.184C103.682 26.9443 103.223 26.6113 102.881 26.1851C102.54 25.7455 102.297 25.2261 102.152 24.6267C102.008 24.0273 101.935 23.368 101.935 22.6488V16.795H104.871V22.2892C104.871 23.2482 104.996 23.9408 105.245 24.367C105.495 24.7932 105.961 25.0063 106.644 25.0063C106.854 25.0063 107.077 24.9996 107.314 24.9863C107.55 24.9597 107.76 24.9331 107.944 24.9064V16.795H110.88V26.9443Z" fill="#F6F5F5"/>
<path d="M116.531 27.3039H113.596V16.795H116.531V27.3039ZM116.807 13.7581C116.807 14.3042 116.63 14.7371 116.275 15.0568C115.934 15.3631 115.527 15.5163 115.054 15.5163C114.581 15.5163 114.167 15.3631 113.813 15.0568C113.471 14.7371 113.3 14.3042 113.3 13.7581C113.3 13.2121 113.471 12.7858 113.813 12.4795C114.167 12.1598 114.581 12 115.054 12C115.527 12 115.934 12.1598 116.275 12.4795C116.63 12.7858 116.807 13.2121 116.807 13.7581Z" fill="#F6F5F5"/>
<path d="M118.759 22.0494C118.759 21.2902 118.877 20.5776 119.113 19.9117C119.363 19.2324 119.718 18.6463 120.177 18.1535C120.637 17.6474 121.195 17.2478 121.852 16.9548C122.509 16.6618 123.257 16.5152 124.098 16.5152C124.649 16.5152 125.155 16.5685 125.615 16.6751C126.075 16.7683 126.521 16.9082 126.954 17.0946L126.344 19.4721C126.068 19.3656 125.766 19.2723 125.437 19.1924C125.109 19.1125 124.741 19.0726 124.334 19.0726C123.467 19.0726 122.817 19.3456 122.384 19.8917C121.964 20.4378 121.753 21.157 121.753 22.0494C121.753 22.9951 121.95 23.7277 122.344 24.2471C122.752 24.7666 123.454 25.0263 124.452 25.0263C124.807 25.0263 125.188 24.993 125.595 24.9264C126.002 24.8598 126.377 24.7532 126.718 24.6067L127.132 27.0442C126.79 27.1907 126.363 27.3172 125.851 27.4238C125.339 27.5303 124.774 27.5836 124.157 27.5836C123.211 27.5836 122.397 27.4437 121.714 27.164C121.031 26.871 120.466 26.4781 120.02 25.9853C119.586 25.4925 119.264 24.9131 119.054 24.2471C118.857 23.5678 118.759 22.8353 118.759 22.0494Z" fill="#F6F5F5"/>
<path d="M131.998 27.3039H129.063V16.795H131.998V27.3039ZM132.274 13.7581C132.274 14.3042 132.096 14.7371 131.742 15.0568C131.4 15.3631 130.993 15.5163 130.52 15.5163C130.048 15.5163 129.634 15.3631 129.279 15.0568C128.938 14.7371 128.767 14.3042 128.767 13.7581C128.767 13.2121 128.938 12.7858 129.279 12.4795C129.634 12.1598 130.048 12 130.52 12C130.993 12 131.4 12.1598 131.742 12.4795C132.096 12.7858 132.274 13.2121 132.274 13.7581Z" fill="#F6F5F5"/>
<path d="M138.678 25.2261C138.967 25.2261 139.243 25.2194 139.505 25.2061C139.768 25.1928 139.978 25.1728 140.136 25.1462V22.8885C140.018 22.8619 139.84 22.8353 139.604 22.8086C139.367 22.782 139.151 22.7687 138.954 22.7687C138.678 22.7687 138.415 22.7886 138.166 22.8286C137.929 22.8552 137.719 22.9152 137.535 23.0084C137.351 23.1016 137.207 23.2282 137.102 23.388C136.997 23.5478 136.944 23.7476 136.944 23.9874C136.944 24.4536 137.095 24.7799 137.397 24.9664C137.713 25.1395 138.139 25.2261 138.678 25.2261ZM138.442 16.5152C139.308 16.5152 140.031 16.6151 140.609 16.8149C141.187 17.0147 141.646 17.3011 141.988 17.674C142.342 18.047 142.592 18.4998 142.736 19.0326C142.881 19.5654 142.953 20.1581 142.953 20.8107V27.0042C142.533 27.0974 141.948 27.204 141.2 27.3239C140.451 27.4571 139.545 27.5237 138.481 27.5237C137.811 27.5237 137.2 27.4637 136.649 27.3438C136.11 27.224 135.644 27.0308 135.25 26.7645C134.856 26.4848 134.554 26.1251 134.344 25.6856C134.134 25.2461 134.028 24.7066 134.028 24.0673C134.028 23.4546 134.147 22.9352 134.383 22.5089C134.633 22.0827 134.961 21.7431 135.368 21.49C135.775 21.2369 136.242 21.0571 136.767 20.9506C137.292 20.8307 137.837 20.7708 138.402 20.7708C138.783 20.7708 139.118 20.7907 139.407 20.8307C139.709 20.8573 139.952 20.8973 140.136 20.9506V20.6709C140.136 20.1647 139.985 19.7585 139.683 19.4522C139.381 19.1458 138.855 18.9926 138.107 18.9926C137.607 18.9926 137.115 19.0326 136.629 19.1125C136.143 19.1791 135.723 19.279 135.368 19.4122L134.994 17.0147C135.165 16.9614 135.375 16.9082 135.624 16.8549C135.887 16.7883 136.169 16.735 136.471 16.6951C136.773 16.6418 137.089 16.6018 137.417 16.5752C137.759 16.5352 138.1 16.5152 138.442 16.5152Z" fill="#F6F5F5"/>
<path d="M148.543 25.1661C149.081 25.1661 149.462 25.1129 149.686 25.0063C149.909 24.8998 150.021 24.6933 150.021 24.387C150.021 24.1472 149.876 23.9408 149.587 23.7676C149.298 23.5811 148.858 23.3747 148.267 23.1483C147.807 22.9751 147.387 22.7953 147.006 22.6088C146.639 22.4224 146.323 22.2026 146.061 21.9495C145.798 21.6831 145.594 21.3701 145.45 21.0105C145.305 20.6509 145.233 20.218 145.233 19.7119C145.233 18.7263 145.594 17.9471 146.317 17.3743C147.039 16.8016 148.031 16.5152 149.292 16.5152C149.922 16.5152 150.526 16.5752 151.104 16.6951C151.682 16.8016 152.142 16.9215 152.483 17.0547L151.971 19.3722C151.629 19.2524 151.255 19.1458 150.848 19.0526C150.454 18.9593 150.007 18.9127 149.508 18.9127C148.589 18.9127 148.129 19.1724 148.129 19.6919C148.129 19.8118 148.149 19.9183 148.188 20.0116C148.228 20.1048 148.307 20.198 148.425 20.2913C148.543 20.3712 148.701 20.4644 148.898 20.571C149.108 20.6642 149.37 20.7708 149.686 20.8906C150.329 21.1304 150.861 21.3701 151.281 21.6099C151.702 21.8363 152.03 22.0894 152.266 22.3691C152.516 22.6355 152.687 22.9352 152.779 23.2681C152.884 23.6011 152.936 23.9874 152.936 24.4269C152.936 25.4658 152.549 26.2517 151.774 26.7844C151.012 27.3172 149.929 27.5836 148.523 27.5836C147.604 27.5836 146.836 27.5037 146.218 27.3438C145.614 27.184 145.194 27.0508 144.957 26.9443L145.45 24.5268C145.949 24.7266 146.461 24.8864 146.987 25.0063C147.512 25.1129 148.031 25.1661 148.543 25.1661Z" fill="#F6F5F5"/>
<path d="M158.164 25.9453C159.333 25.9453 160.167 25.7122 160.666 25.2461C161.178 24.7799 161.434 24.1539 161.434 23.368C161.434 22.8619 161.329 22.4357 161.119 22.0894C160.909 21.7431 160.633 21.47 160.292 21.2702C159.95 21.0571 159.55 20.9106 159.09 20.8307C158.643 20.7375 158.184 20.6909 157.711 20.6909H157.238V19.1724H157.888C158.217 19.1724 158.552 19.1392 158.893 19.0726C159.248 19.006 159.569 18.8861 159.858 18.7129C160.147 18.5398 160.384 18.3067 160.568 18.0137C160.751 17.7073 160.843 17.3277 160.843 16.8749C160.843 16.5019 160.778 16.1823 160.646 15.9159C160.515 15.6495 160.338 15.4297 160.114 15.2566C159.904 15.0834 159.655 14.9635 159.366 14.8969C159.09 14.817 158.795 14.7771 158.479 14.7771C157.849 14.7771 157.31 14.8703 156.864 15.0568C156.43 15.2433 156.063 15.4364 155.761 15.6362L155.051 14.2177C155.209 14.1111 155.406 13.9979 155.642 13.878C155.892 13.7448 156.168 13.625 156.47 13.5184C156.772 13.4118 157.094 13.3253 157.435 13.2587C157.79 13.1788 158.158 13.1388 158.538 13.1388C159.261 13.1388 159.885 13.232 160.41 13.4185C160.935 13.5917 161.369 13.8447 161.71 14.1777C162.052 14.4974 162.308 14.8836 162.479 15.3365C162.649 15.776 162.735 16.2555 162.735 16.775C162.735 17.4942 162.531 18.1136 162.124 18.633C161.717 19.1392 161.224 19.5254 160.646 19.7918C161.001 19.8984 161.343 20.0515 161.671 20.2513C161.999 20.4511 162.282 20.7042 162.518 21.0105C162.768 21.3169 162.965 21.6698 163.109 22.0694C163.267 22.469 163.345 22.9152 163.345 23.408C163.345 24.0074 163.24 24.5668 163.03 25.0862C162.833 25.5924 162.518 26.0319 162.085 26.4048C161.664 26.7778 161.132 27.0708 160.489 27.2839C159.845 27.497 159.083 27.6036 158.203 27.6036C157.862 27.6036 157.507 27.5769 157.14 27.5237C156.785 27.4704 156.45 27.4038 156.135 27.3239C155.82 27.244 155.544 27.164 155.307 27.0841C155.071 27.0042 154.9 26.9376 154.795 26.8843L155.15 25.266C155.373 25.3726 155.741 25.5124 156.253 25.6856C156.778 25.8587 157.415 25.9453 158.164 25.9453Z" fill="#F6F5F5"/>
<path d="M166.034 21.7497C166.034 20.4045 166.218 19.2191 166.585 18.1935C166.953 17.1546 167.472 16.2822 168.142 15.5762C168.825 14.8703 169.646 14.3375 170.604 13.9779C171.576 13.605 172.666 13.4118 173.875 13.3985L174.013 14.9569C173.238 14.9702 172.529 15.0568 171.885 15.2166C171.255 15.3764 170.69 15.6295 170.191 15.9758C169.692 16.3221 169.271 16.775 168.93 17.3344C168.588 17.8805 168.332 18.5598 168.161 19.3722C168.503 19.2124 168.884 19.0792 169.304 18.9727C169.738 18.8661 170.184 18.8128 170.644 18.8128C171.419 18.8128 172.075 18.9327 172.614 19.1724C173.152 19.4122 173.592 19.7319 173.934 20.1314C174.275 20.5177 174.518 20.9706 174.663 21.49C174.82 21.9961 174.899 22.5289 174.899 23.0883C174.899 23.5945 174.814 24.1139 174.643 24.6467C174.472 25.1795 174.21 25.6656 173.855 26.1052C173.514 26.5447 173.074 26.9043 172.535 27.184C171.997 27.4637 171.36 27.6036 170.624 27.6036C169.127 27.6036 167.984 27.0841 167.196 26.0452C166.421 25.0063 166.034 23.5745 166.034 21.7497ZM170.447 20.3312C169.987 20.3312 169.56 20.3778 169.166 20.4711C168.772 20.551 168.378 20.6775 167.984 20.8507C167.971 20.9972 167.958 21.1504 167.945 21.3102C167.945 21.4567 167.945 21.6032 167.945 21.7497C167.945 22.3358 167.984 22.8885 168.063 23.408C168.142 23.9274 168.28 24.387 168.477 24.7865C168.687 25.1728 168.963 25.4858 169.304 25.7256C169.646 25.952 170.079 26.0652 170.604 26.0652C171.038 26.0652 171.406 25.972 171.708 25.7855C172.01 25.599 172.259 25.3593 172.456 25.0662C172.653 24.7732 172.791 24.4602 172.87 24.1272C172.962 23.7809 173.008 23.4479 173.008 23.1283C173.008 22.2226 172.791 21.53 172.358 21.0505C171.938 20.571 171.301 20.3312 170.447 20.3312Z" fill="#F6F5F5"/>
<path d="M176.859 20.3712C176.859 18.0536 177.259 16.2688 178.06 15.0168C178.875 13.7648 179.998 13.1388 181.429 13.1388C182.861 13.1388 183.977 13.7648 184.779 15.0168C185.593 16.2688 186 18.0536 186 20.3712C186 22.6887 185.593 24.4735 184.779 25.7256C183.977 26.9776 182.861 27.6036 181.429 27.6036C179.998 27.6036 178.875 26.9776 178.06 25.7256C177.259 24.4735 176.859 22.6887 176.859 20.3712ZM184.069 20.3712C184.069 19.612 184.023 18.8927 183.931 18.2135C183.853 17.5342 183.708 16.9415 183.498 16.4353C183.301 15.9292 183.032 15.5296 182.69 15.2366C182.349 14.9302 181.928 14.7771 181.429 14.7771C180.93 14.7771 180.51 14.9302 180.168 15.2366C179.827 15.5296 179.551 15.9292 179.341 16.4353C179.144 16.9415 179 17.5342 178.908 18.2135C178.829 18.8927 178.789 19.612 178.789 20.3712C178.789 21.1304 178.829 21.8496 178.908 22.5289C179 23.2082 179.144 23.8009 179.341 24.307C179.551 24.8132 179.827 25.2194 180.168 25.5258C180.51 25.8188 180.93 25.9653 181.429 25.9653C181.928 25.9653 182.349 25.8188 182.69 25.5258C183.032 25.2194 183.301 24.8132 183.498 24.307C183.708 23.8009 183.853 23.2082 183.931 22.5289C184.023 21.8496 184.069 21.1304 184.069 20.3712Z" fill="#F6F5F5"/>
<defs>
<linearGradient id="paint0_linear_532_64" x1="15.5809" y1="0" x2="15.5809" y2="42.7832" gradientUnits="userSpaceOnUse">
<stop stop-color="#35EE9A"/>
<stop offset="0.499191" stop-color="#4253E4"/>
<stop offset="1" stop-color="#8436E4"/>
</linearGradient>
<linearGradient id="paint1_linear_532_64" x1="26.8385" y1="11.8516" x2="26.8385" y2="42.9999" gradientUnits="userSpaceOnUse">
<stop stop-color="#35EE9A"/>
<stop offset="0.499191" stop-color="#4253E4"/>
<stop offset="1" stop-color="#8436E4"/>
</linearGradient>
</defs>
</svg>
