<svg width="119" height="119" viewBox="0 0 119 119" fill="none" xmlns="http://www.w3.org/2000/svg">
<circle cx="59.5" cy="59.5" r="57" stroke="#35EE9A" stroke-width="5"/>
<path fill-rule="evenodd" clip-rule="evenodd" d="M59.499 40C60.6311 40 61.5488 40.873 61.5488 41.95V44.4445L71.7981 47.6945L77.2994 45.9501C78.3734 45.6095 79.5343 46.1617 79.8923 47.1834C80.2503 48.205 79.6698 49.3094 78.5958 49.6499L74.3909 50.9833L79.8593 66.589C80.187 67.3839 79.9346 68.32 79.1823 68.8584C74.8191 71.9807 68.7794 71.9806 64.4163 68.8583C63.712 68.3544 63.4252 67.4786 63.7039 66.6834L69.2052 50.9833L61.5488 48.5555V75.1H65.6485C66.7806 75.1 67.6984 75.973 67.6984 77.05C67.6984 78.127 66.7806 79 65.6485 79H53.3495C52.2174 79 51.2996 78.127 51.2996 77.05C51.2996 75.973 52.2174 75.1 53.3495 75.1H57.4492V48.5555L49.7928 50.9833L55.2612 66.5891C55.5888 67.384 55.3365 68.32 54.5842 68.8584C50.221 71.9807 44.1813 71.9806 39.8181 68.8583C39.1139 68.3544 38.8271 67.4786 39.1057 66.6834L44.6071 50.9833L40.4022 49.6499C39.3282 49.3094 38.7477 48.205 39.1057 47.1834C39.4637 46.1617 40.6246 45.6095 41.6986 45.9501L47.1999 47.6945L57.4492 44.4445V41.95C57.4492 40.873 58.3669 40 59.499 40ZM47.2 55.9164L43.5039 66.4644C45.8207 67.5783 48.5794 67.5786 50.8964 66.4654L47.2 55.9164ZM71.7981 55.9164L68.102 66.4644C70.4188 67.5783 73.1775 67.5786 75.4945 66.4654L71.7981 55.9164Z" fill="#35EE9A"/>
</svg>
