<svg width="140" height="140" viewBox="0 0 140 140" fill="none" xmlns="http://www.w3.org/2000/svg">
<circle cx="70" cy="70" r="67.5" stroke="#35EE9A" stroke-width="5"/>
<g clip-path="url(#clip0_485_410)">
<path d="M76.4807 50.0002C77.0648 50.219 77.5471 50.5329 77.7199 51.1869C77.9956 52.238 77.3196 53.1994 76.2357 53.276C76.0859 53.2869 75.935 53.2815 75.784 53.2815H55.8515C53.6356 53.2815 52.2815 54.6399 52.2815 56.8613V85.1621C52.2815 87.3496 53.6443 88.719 55.834 88.719C65.2665 88.719 74.7001 88.6971 84.1337 88.7354C86.2862 88.7441 87.7431 87.168 87.7299 85.3579C87.7299 84.5813 88.3151 83.9623 89.0775 83.819C89.4447 83.7561 89.8223 83.8201 90.1483 84.0004C90.4743 84.1807 90.7293 84.4666 90.8712 84.811C90.9149 84.9105 90.9576 85.0101 91.0003 85.1096V86.176C90.9691 86.2466 90.9442 86.3198 90.9259 86.3948C90.7344 87.676 90.1686 88.8721 89.2995 89.8328C88.4304 90.7935 87.2969 91.476 86.0412 91.7946C85.7546 91.8679 85.4648 91.928 85.176 91.9948H54.8245C54.7511 91.9649 54.6759 91.94 54.5992 91.9204C51.8156 91.403 50.0251 89.7821 49.2135 87.0751C49.125 86.7787 49.0703 86.4724 48.9948 86.1705V55.8244C49.0243 55.7506 49.0492 55.675 49.0692 55.598C49.5843 52.8133 51.2075 51.0251 53.9145 50.2146C54.2109 50.1249 54.5171 50.0702 54.819 49.9958L76.4807 50.0002Z" fill="#35EE9A"/>
<path d="M91 55.5781C90.966 55.6642 90.9371 55.7522 90.9136 55.8417C90.7518 56.6766 90.3748 57.4548 89.8198 58.0992C85.9728 62.5245 82.1304 66.9539 78.2928 71.3872C78.1459 71.5542 78.0644 71.7686 78.0631 71.9909C78.3716 75.1202 77.2319 77.6249 74.8442 79.6122C72.952 81.1861 70.7448 81.9572 68.3266 82.2186C65.497 82.5238 62.7572 82.2295 60.1716 80.9849C59.2889 80.5605 58.4478 80.0431 57.6078 79.5356C57.0248 79.1824 56.7328 78.6311 56.8105 77.9409C56.887 77.2738 57.2698 76.8166 57.8966 76.5694C59.4147 75.9722 60.4056 74.8642 60.9798 73.3614C61.3736 72.3289 61.7247 71.2833 62.1425 70.2574C63.3456 67.3195 65.4948 65.4919 68.6273 64.898C69.277 64.7744 69.9595 64.8006 70.6267 64.8017C70.8663 64.8017 71.0248 64.77 71.1878 64.583C74.9022 60.2955 78.6209 56.0116 82.3441 51.7314C83.0845 50.8577 84.1092 50.2729 85.2381 50.0799C85.3298 50.0587 85.4204 50.0328 85.5094 50.0022H86.7344C86.8202 50.0357 86.9079 50.0646 86.9969 50.0886C88.7469 50.4736 89.9762 51.4842 90.6544 53.1402C90.813 53.5263 90.8873 53.9463 91 54.3499V55.5781ZM61.6963 78.0755C61.8942 78.1597 62.0648 78.2341 62.2366 78.3041C64.2338 79.1178 66.3009 79.1583 68.4031 78.8936C70.3117 78.6541 71.9786 77.9202 73.3359 76.5464C74.6102 75.2569 75.0936 73.7027 74.7119 71.9275C74.2569 69.822 72.6152 68.3531 70.4922 68.072C68.5913 67.8205 66.4606 68.9361 65.5375 70.7605C65.0902 71.6453 64.7719 72.598 64.4284 73.531C63.9527 74.8161 63.4298 76.0739 62.5439 77.1403C62.2847 77.4531 61.9992 77.743 61.6963 78.0755ZM76.7408 68.2131C76.7629 68.1562 76.7931 68.1028 76.8305 68.0545C80.3232 64.0295 83.8166 60.0049 87.3108 55.9806C87.4554 55.8201 87.566 55.6319 87.6359 55.4274C87.7057 55.2229 87.7334 55.0064 87.7173 54.7909C87.7011 54.5754 87.6415 54.3654 87.5419 54.1736C87.4423 53.9818 87.3049 53.8122 87.138 53.675C86.9745 53.5339 86.7845 53.4268 86.5792 53.3599C86.3738 53.293 86.1572 53.2677 85.942 53.2854C85.7267 53.3031 85.5172 53.3635 85.3255 53.4631C85.1339 53.5627 84.964 53.6994 84.8258 53.8653C81.3987 57.8028 77.9767 61.7447 74.5598 65.6909C74.4734 65.7905 74.3958 65.8988 74.3619 65.9436L76.7408 68.2131Z" fill="#35EE9A"/>
<path d="M91 77.8905C90.8086 78.1979 90.6719 78.5665 90.416 78.8005C89.9227 79.2501 89.3135 79.3146 88.6922 79.0543C88.071 78.794 87.7767 78.2941 87.7275 77.6466C87.6991 77.266 87.7188 76.881 87.7188 76.4993C87.7188 72.9993 87.7188 69.4993 87.7188 65.9993C87.7188 65.1134 88.2536 64.4516 89.0761 64.2963C89.8702 64.1465 90.6074 64.6048 90.9246 65.4415C90.9467 65.4909 90.9715 65.5391 90.9989 65.5859L91 77.8905Z" fill="#35EE9A"/>
</g>
<defs>
<clipPath id="clip0_485_410">
<rect width="42" height="42" fill="white" transform="translate(49 50)"/>
</clipPath>
</defs>
</svg>
