<svg width="140" height="140" viewBox="0 0 140 140" fill="none" xmlns="http://www.w3.org/2000/svg">
<circle cx="70" cy="70" r="67.5" stroke="#35EE9A" stroke-width="5"/>
<path fill-rule="evenodd" clip-rule="evenodd" d="M83.338 50.127C84.1573 50.4184 84.7 51.1606 84.7 51.9898V58.2098C88.323 59.0933 91 62.2094 91 65.918C91 69.6265 88.323 72.7427 84.7 73.6262V79.8462C84.7 80.6753 84.1573 81.4176 83.338 81.709C82.5187 82.0004 81.5945 81.7798 81.0187 81.1554C79.7314 79.7597 77.4517 78.4203 74.3232 77.4314C72.9977 77.0124 71.5474 76.6654 70 76.4055V84.3035C70 87.3363 67.4052 89.7949 64.2044 89.7949C61.7551 89.7949 59.5702 88.336 58.7464 86.1505L58.7413 86.137L54.52 74.6782C51.2361 72.9989 49 69.7078 49 65.918C49 60.4235 53.701 55.9693 59.5 55.9693H63.3474C64.8262 55.9693 66.2624 55.8932 67.6395 55.75C67.6577 55.7479 67.6759 55.746 67.6942 55.7443C70.118 55.4889 72.3578 55.0258 74.3232 54.4046C77.4517 53.4157 79.7314 52.0763 81.0187 50.6806C81.5945 50.0562 82.5187 49.8356 83.338 50.127ZM65.8 59.8848C64.9934 59.9271 64.1751 59.9488 63.3474 59.9488H59.5C56.0206 59.9488 53.2 62.6213 53.2 65.918C53.2 68.3836 54.7782 70.5046 57.0381 71.4148C57.7916 71.7183 58.6223 71.8872 59.5 71.8872L63.3474 71.8872C64.1751 71.8872 64.9934 71.9088 65.8 71.9511V59.8848ZM70 72.3708V59.4652C72.012 59.1645 73.911 58.7299 75.6523 58.1795C77.4157 57.6222 79.0562 56.9334 80.5 56.1201L80.5 75.7159C79.0562 74.9026 77.4157 74.2138 75.6523 73.6564C73.911 73.106 72.012 72.6715 70 72.3708ZM84.7 69.3651C85.9554 68.677 86.8 67.391 86.8 65.918C86.8 64.445 85.9554 63.159 84.7 62.4709V69.3651ZM65.8 75.9374C64.9979 75.8908 64.1794 75.8667 63.3474 75.8667L59.4999 75.8667C59.4687 75.8667 59.4374 75.8665 59.4062 75.8663L62.7017 84.812C62.7024 84.8138 62.7031 84.8156 62.7037 84.8174C62.9321 85.4161 63.532 85.8154 64.2044 85.8154C65.0856 85.8154 65.8 85.1385 65.8 84.3035V75.9374Z" fill="#35EE9A"/>
</svg>
