<svg width="140" height="140" viewBox="0 0 140 140" fill="none" xmlns="http://www.w3.org/2000/svg">
<circle cx="70" cy="70" r="67.5" stroke="#35EE9A" stroke-width="5"/>
<path fill-rule="evenodd" clip-rule="evenodd" d="M49 57.1887C49 53.7708 51.8206 51 55.3 51H84.7C88.1794 51 91 53.7708 91 57.1887V73.6919C91 77.1099 88.1794 79.8807 84.7 79.8807H79.2698L71.4849 87.5281C70.6648 88.3337 69.3352 88.3337 68.5151 87.5281L60.7302 79.8807H55.3C51.8206 79.8807 49 77.1099 49 73.6919V57.1887ZM55.3 55.1258C54.1402 55.1258 53.2 56.0494 53.2 57.1887V73.6919C53.2 74.8313 54.1402 75.7548 55.3 75.7548H61.6C62.157 75.7548 62.6911 75.9722 63.0849 76.3591L70 83.152L76.9151 76.3591C77.3089 75.9722 77.843 75.7548 78.4 75.7548H84.7C85.8598 75.7548 86.8 74.8313 86.8 73.6919V57.1887C86.8 56.0494 85.8598 55.1258 84.7 55.1258H55.3ZM57.4 61.3145C57.4 60.1752 58.3402 59.2516 59.5 59.2516H80.5C81.6598 59.2516 82.6 60.1752 82.6 61.3145C82.6 62.4538 81.6598 63.3774 80.5 63.3774H59.5C58.3402 63.3774 57.4 62.4538 57.4 61.3145ZM57.4 69.5661C57.4 68.4268 58.3402 67.5032 59.5 67.5032H67.9C69.0598 67.5032 70 68.4268 70 69.5661C70 70.7054 69.0598 71.629 67.9 71.629H59.5C58.3402 71.629 57.4 70.7054 57.4 69.5661Z" fill="#35EE9A"/>
</svg>
